<svg width="91" height="43" fill="none" xmlns="http://www.w3.org/2000/svg"><mask id="a" maskUnits="userSpaceOnUse" x="0" y="3.482" width="91" height="39" fill="#000"><path fill="#fff" d="M0 3.482h91v39H0z"/><path fill-rule="evenodd" clip-rule="evenodd" d="M89 6.95c0-.796-.646-1.442-1.443-1.443l-47.354-.014a5.023 5.023 0 0 1-10.045-.003l-26.99-.008c-.798 0-1.444.646-1.444 1.444v32.697c0 .797.646 1.444 1.443 1.444l25.547.007a5.025 5.025 0 0 1 9.822.003l49.02.015c.797 0 1.444-.646 1.444-1.444V6.951Z"/></mask><path fill-rule="evenodd" clip-rule="evenodd" d="M89 6.95c0-.796-.646-1.442-1.443-1.443l-47.354-.014a5.023 5.023 0 0 1-10.045-.003l-26.99-.008c-.798 0-1.444.646-1.444 1.444v32.697c0 .797.646 1.444 1.443 1.444l25.547.007a5.025 5.025 0 0 1 9.822.003l49.02.015c.797 0 1.444-.646 1.444-1.444V6.951Z" fill="#000"/><path d="M87.557 5.507v1.27-1.27Zm-47.354-.014v-1.27h-1.255l-.015 1.255 1.27.015ZM30.158 5.49l1.27-.015-.015-1.254h-1.255v1.27Zm-26.99-.008v-1.27 1.27ZM1.723 6.926H.454h1.27Zm0 32.697h1.27-1.27Zm1.443 1.444v1.27-1.27Zm25.547.007v1.27h1.026l.216-1.003-1.242-.267Zm9.822.003-1.242.266.215 1.004h1.027v-1.27Zm49.02.015v1.27-1.27Zm0-34.314c.096 0 .174.077.174.173h2.54a2.714 2.714 0 0 0-2.713-2.714v2.54Zm-47.354-.014 47.355.014v-2.54l-47.354-.015v2.54Zm-5.022 4.959a6.293 6.293 0 0 0 6.293-6.214l-2.54-.031a3.753 3.753 0 0 1-3.753 3.704v2.54Zm-6.292-6.218a6.293 6.293 0 0 0 6.292 6.218v-2.54a3.752 3.752 0 0 1-3.752-3.708l-2.54.03ZM3.168 6.753l26.99.008V4.22l-26.99-.009v2.54Zm-.174.173c0-.096.077-.173.173-.173v-2.54A2.714 2.714 0 0 0 .454 6.925h2.54Zm0 32.697V6.926H.454v32.697h2.54Zm.173.174a.173.173 0 0 1-.173-.174H.454a2.714 2.714 0 0 0 2.712 2.714l.001-2.54Zm25.547.007-25.547-.008v2.54l25.546.008.001-2.54Zm4.91-3.965a6.295 6.295 0 0 0-6.152 4.969l2.484.533a3.754 3.754 0 0 1 3.669-2.961v-2.54Zm6.154 4.973a6.295 6.295 0 0 0-6.153-4.973v2.54c1.8 0 3.307 1.27 3.67 2.964l2.483-.531Zm47.779-.99-49.02-.015-.001 2.54 49.02.015v-2.54Zm.173-.174a.173.173 0 0 1-.174.173v2.54a2.714 2.714 0 0 0 2.714-2.713h-2.54Zm0-32.697v32.697h2.54V6.951h-2.54Z" fill="#000" mask="url(#a)"/><mask id="c" maskUnits="userSpaceOnUse" x="0" y="-.188" width="91" height="39" fill="#000"><path fill="#fff" d="M0-.188h91v39H0z"/><path fill-rule="evenodd" clip-rule="evenodd" d="M89 3.28c0-.797-.646-1.443-1.443-1.443l-47.354-.014a5.023 5.023 0 0 1-10.045-.003l-26.99-.008c-.798 0-1.444.646-1.444 1.443v32.697c0 .797.646 1.444 1.443 1.444l25.546.007a5.025 5.025 0 0 1 9.823.003l49.02.015c.797 0 1.444-.646 1.444-1.444V3.28Z"/></mask><path fill-rule="evenodd" clip-rule="evenodd" d="M89 3.28c0-.797-.646-1.443-1.443-1.443l-47.354-.014a5.023 5.023 0 0 1-10.045-.003l-26.99-.008c-.798 0-1.444.646-1.444 1.443v32.697c0 .797.646 1.444 1.443 1.444l25.546.007a5.025 5.025 0 0 1 9.823.003l49.02.015c.797 0 1.444-.646 1.444-1.444V3.28Z" fill="url(#b)"/><path d="M87.557 1.837V.567v1.27Zm-47.354-.014V.552L38.948.551l-.016 1.255 1.27.016ZM30.158 1.82l1.27-.016L31.413.55h-1.255v1.27Zm-26.99-.008V.542v1.27ZM1.723 3.255H.454h1.27Zm0 32.697h1.27-1.27Zm1.443 1.444v1.27-1.27Zm25.546.007v1.27h1.027l.215-1.003-1.242-.267Zm9.823.003-1.242.266.215 1.004h1.027v-1.27Zm49.02.015v1.27-1.27Zm0-34.314c.096 0 .174.077.174.173h2.54A2.714 2.714 0 0 0 87.557.566v2.54Zm-47.354-.014 47.355.014V.567L40.203.551v2.54ZM35.18 8.052a6.293 6.293 0 0 0 6.293-6.214l-2.54-.031A3.753 3.753 0 0 1 35.18 5.51v2.54Zm-6.292-6.217a6.293 6.293 0 0 0 6.292 6.217v-2.54a3.753 3.753 0 0 1-3.752-3.708l-2.54.03ZM3.168 3.082l26.99.008V.55L3.168.54v2.54Zm-.174.173c0-.096.077-.173.173-.173V.542A2.714 2.714 0 0 0 .454 3.254h2.54Zm0 32.697V3.255H.454v32.697h2.54Zm.173.174a.173.173 0 0 1-.173-.174H.454a2.714 2.714 0 0 0 2.712 2.714l.001-2.54Zm25.547.007-25.547-.007v2.54l25.546.008v-2.54Zm4.91-3.965a6.295 6.295 0 0 0-6.153 4.97l2.484.532a3.754 3.754 0 0 1 3.67-2.961v-2.54Zm6.154 4.973a6.295 6.295 0 0 0-6.153-4.973v2.54c1.8 0 3.307 1.27 3.67 2.964l2.483-.531Zm47.779-.99-49.02-.015-.001 2.54 49.02.015v-2.54Zm.173-.174a.173.173 0 0 1-.174.174v2.54a2.714 2.714 0 0 0 2.714-2.714h-2.54Zm0-32.697v32.697h2.54V3.28h-2.54Z" fill="#000" mask="url(#c)"/><path d="M15.772 19c.049.01.097.01.145.01h.174c.705 0 1.372-.158 2-.464a6.008 6.008 0 0 0 1.652-1.192 5.703 5.703 0 0 0 1.111-1.597c.28-.591.416-1.163.416-1.714 0-.395-.078-.77-.223-1.134a2.222 2.222 0 0 0-.666-.926c-.3-.266-.686-.473-1.17-.631-.473-.158-1.033-.236-1.69-.236-.734 0-1.372.069-1.913.206a5.738 5.738 0 0 0-1.372.543 4.598 4.598 0 0 0-.976.768c-.26.286-.483.592-.686.897-.183.306-.357.601-.512.897a6.926 6.926 0 0 1-.483.768 2.215 2.215 0 0 1-.55.543c-.203.138-.454.207-.754.207-.406 0-.705-.1-.908-.306-.203-.217-.3-.512-.3-.897 0-.355.097-.739.28-1.153.194-.414.464-.828.812-1.242a8.262 8.262 0 0 1 1.304-1.192 8.956 8.956 0 0 1 1.72-1.015 10.966 10.966 0 0 1 2.097-.71 10.446 10.446 0 0 1 2.396-.276c.83 0 1.613.109 2.376.326.764.216 1.44.542 2.02.965.58.424 1.043.956 1.39 1.597.349.64.522 1.4.522 2.257 0 .581-.106 1.133-.318 1.665a6.202 6.202 0 0 1-.831 1.478 7.496 7.496 0 0 1-1.227 1.262c-.464.384-.957.72-1.488 1.015a11.68 11.68 0 0 1-1.633.759 8.918 8.918 0 0 1-1.604.443c.078.385.194.828.358 1.311.174.483.377.936.608 1.38.242.433.512.798.802 1.104.29.305.6.473.928.492.067.01.125.01.183.01h.174c.59 0 1.121-.098 1.585-.296.463-.197.85-.413 1.16-.66.366-.276.685-.591.946-.956.251-.286.502-.433.763-.433.164 0 .3.059.416.177a.646.646 0 0 1 .174.473c0 .187-.058.414-.184.67-.116.247-.31.513-.599.779-.83.798-1.652 1.39-2.454 1.764-.792.364-1.546.542-2.26.542-.58 0-1.122-.168-1.614-.512-.493-.336-.947-.799-1.353-1.38a11.86 11.86 0 0 1-1.11-2.02 25.12 25.12 0 0 1-.89-2.454c-.145.335-.3.739-.454 1.202-.154.453-.319.926-.502 1.419-.174.493-.367.976-.56 1.449a8.262 8.262 0 0 1-.648 1.28 3.94 3.94 0 0 1-.753.907c-.27.237-.56.346-.88.346-.26 0-.473-.04-.627-.129a1 1 0 0 1-.377-.305 1.246 1.246 0 0 1-.194-.414 2.195 2.195 0 0 1-.048-.424 2.77 2.77 0 0 1 .28-1.143l3.594-6.702c.31-.561.619-1.103.928-1.626.319-.532.618-.995.908-1.4.3-.403.58-.728.84-.965.271-.246.503-.374.715-.374.058 0 .126.01.203.039a.572.572 0 0 1 .396.345.872.872 0 0 1 .078.384c0 .158-.049.375-.136.66a9.766 9.766 0 0 1-.357.966c-.145.365-.319.77-.512 1.203-.222.473-.425.916-.638 1.37Z" fill="#000"/><path fill-rule="evenodd" clip-rule="evenodd" d="M35.786 24.575a.495.495 0 0 0-.495-.495h-.893a.495.495 0 0 0-.495.495v3.659c0 .274.221.495.495.495h.893a.495.495 0 0 0 .495-.495v-3.659Zm-.495-13.897c.273 0 .495.221.495.495v3.659a.495.495 0 0 1-.495.495h-.893a.495.495 0 0 1-.495-.495v-3.659c0-.274.221-.495.495-.495h.893Zm0 6.7c.273 0 .495.223.495.496v3.659a.495.495 0 0 1-.496.495h-.893a.495.495 0 0 1-.495-.495v-3.659c0-.273.222-.495.495-.495h.893Z" fill="#000"/><defs><linearGradient id="b" x1="54.815" y1="1.811" x2="54.815" y2="37.624" gradientUnits="userSpaceOnUse"><stop stop-color="#CCE994"/><stop offset="1" stop-color="#C9F476"/></linearGradient></defs></svg>