<svg width="27" height="30" viewBox="0 0 27 30" fill="none" xmlns="http://www.w3.org/2000/svg"><path d="M27 15.109c0-7.732-6.044-14.006-13.5-14.014C6.044 1.087 0 7.348 0 15.08c0 7.732 6.044 14.007 13.5 14.015 7.456.008 13.5-6.254 13.5-13.986Z" fill="#000"/><path d="M24.655 21.057c4.121-6.135 2.495-14.454-3.633-18.58C14.894-1.65 6.584-.022 2.462 6.113c-4.12 6.135-2.494 14.454 3.634 18.58 6.128 4.127 14.437 2.498 18.559-3.637Z" fill="url(#a)"/><path opacity=".5" d="M11.774 3.169c.07.486-.156.958-.474 1.363-.338.345-.84.537-1.249.739-1.154.376-2.258.788-3.322 1.495-.624.492-1.25 1.022-1.864 1.51-.35.222-.87.219-.99-.235-.074-1.576 1.072-3.015 2.16-4.082 1.162-.882 2.636-1.946 4.07-1.786.723-.177 1.494.239 1.669.996Z" fill="#fff"/><path d="M5.52 15.29v-4.964H6.94v.709h.71v.71h.709v-.71h.709v-.71h1.419v4.966H9.067v-2.838h-.71v1.42h-.709v-1.42H6.94v2.838H5.52Zm6.242 0v-4.964h4.256v.709h.71v2.128h-1.42v.71h.71v.708h.71v.71H14.6v-.71h-.71v-.709h-.709v1.419h-1.419Zm1.419-2.127H14.6v-.71h.709v-1.418H13.18v2.128Zm4.823 2.128v-4.966h3.547v.71h.71v.71h.709v2.127h-.71v.71h-.71v.709h-3.546Zm1.419-.71h1.419v-.709h.709v-2.128h-.71v-.71h-1.418v3.547Z" fill="#000"/><defs><linearGradient id="a" x1="21.022" y1="2.476" x2="6.072" y2="24.678" gradientUnits="userSpaceOnUse"><stop stop-color="#F1A826"/><stop offset="1" stop-color="#FFD600"/></linearGradient></defs></svg>