<svg width="558" height="584" viewBox="0 0 558 584" fill="none" xmlns="http://www.w3.org/2000/svg">
<path d="M491.122 469.17C570.584 350.887 538.968 190.337 420.507 110.571C302.045 30.8046 141.597 62.0284 62.1355 180.311C-17.326 298.594 14.2898 459.144 132.751 538.91C251.213 618.676 411.661 587.452 491.122 469.17Z" fill="black"/>
<path d="M505.961 432.266C590.103 307.016 556.898 137.188 431.789 52.9458C306.679 -31.2967 137.048 1.95171 52.9067 127.201C-31.2351 252.451 1.97 422.279 127.08 506.521C252.189 590.764 421.82 557.516 505.961 432.266Z" fill="url(#paint0_linear_900_111)" stroke="black" stroke-width="11.11"/>
<path opacity="0.5" d="M243.746 71.3913C245.141 81.1119 240.616 90.5596 234.258 98.6526C227.505 105.554 217.447 109.396 209.288 113.433C186.211 120.965 164.12 129.2 142.852 143.339C130.373 153.182 117.838 163.773 105.565 173.549C98.5742 177.978 88.1588 177.911 85.7618 168.84C84.2944 137.314 107.203 108.534 128.977 87.201C152.211 69.5584 181.695 48.2824 210.372 51.4736C224.833 47.9339 240.248 56.2586 243.746 71.3913Z" fill="white"/>
<path fill-rule="evenodd" clip-rule="evenodd" d="M14.7403 275.02C24.4217 404.55 139.053 506.8 279.039 506.8C419.035 506.8 533.672 404.537 543.34 274.994C543.779 280.868 544.002 286.797 544.002 292.776C544.002 430.605 425.375 542.337 279.041 542.337C132.707 542.337 14.0801 430.605 14.0801 292.776C14.0801 286.806 14.3026 280.885 14.7403 275.02Z" fill="white"/>
<mask id="mask0_900_111" style="mask-type:alpha" maskUnits="userSpaceOnUse" x="14" y="48" width="533" height="500">
<path d="M546.375 298.316C546.375 160.487 427.218 48.755 280.23 48.755C133.241 48.755 14.084 160.487 14.084 298.316C14.084 436.145 133.241 547.877 280.23 547.877C427.218 547.877 546.375 436.145 546.375 298.316Z" fill="#D9D9D9"/>
</mask>
<g mask="url(#mask0_900_111)">
<path d="M542.031 263.173C542.031 130.061 423.952 21.5091 277.465 21.5091C130.977 21.5091 12.8983 130.061 12.8983 263.173C12.8983 396.284 130.977 504.836 277.465 504.836C423.952 504.836 542.031 396.284 542.031 263.173Z" stroke="black" stroke-width="8.68725"/>
</g>
<rect x="157.027" y="479.168" width="6.318" height="37.908" fill="black"/>
<rect x="157.027" y="479.168" width="6.318" height="37.908" fill="black"/>
<rect x="157.027" y="479.168" width="6.318" height="37.908" fill="black"/>
<path d="M303.131 506.81L348.936 498.912V534.846L303.131 540.769V506.81Z" fill="#FFC807"/>
<rect x="196.516" y="494.965" width="6.318" height="37.908" fill="black"/>
<rect x="196.516" y="494.965" width="6.318" height="37.908" fill="black"/>
<rect x="196.516" y="494.965" width="6.318" height="37.908" fill="black"/>
<rect x="243.9" y="502.861" width="6.318" height="37.908" fill="black"/>
<rect x="243.9" y="502.861" width="6.318" height="37.908" fill="black"/>
<rect x="243.9" y="502.861" width="6.318" height="37.908" fill="black"/>
<rect x="299.186" y="504.439" width="6.318" height="37.908" fill="black"/>
<rect x="299.186" y="504.439" width="6.318" height="37.908" fill="black"/>
<rect x="299.186" y="504.439" width="6.318" height="37.908" fill="black"/>
<rect x="345.777" y="496.543" width="6.318" height="37.908" fill="black"/>
<rect x="345.777" y="496.543" width="6.318" height="37.908" fill="black"/>
<rect x="345.777" y="496.543" width="6.318" height="37.908" fill="black"/>
<rect x="389.215" y="480.746" width="6.318" height="37.908" fill="black"/>
<rect x="389.215" y="480.746" width="6.318" height="37.908" fill="black"/>
<rect x="389.215" y="480.746" width="6.318" height="37.908" fill="black"/>
<rect x="427.125" y="457.846" width="6.318" height="37.908" fill="black"/>
<rect x="427.125" y="457.846" width="6.318" height="37.908" fill="black"/>
<rect x="427.125" y="457.846" width="6.318" height="37.908" fill="black"/>
<rect x="457.135" y="434.941" width="6.318" height="37.908" fill="black"/>
<rect x="457.135" y="434.941" width="6.318" height="37.908" fill="black"/>
<rect x="457.135" y="434.941" width="6.318" height="37.908" fill="black"/>
<rect x="480.828" y="414.408" width="6.318" height="31.59" fill="black"/>
<rect x="480.828" y="414.408" width="6.318" height="31.59" fill="black"/>
<rect x="480.828" y="414.408" width="6.318" height="31.59" fill="black"/>
<rect x="498.99" y="391.508" width="6.318" height="31.59" fill="black"/>
<rect x="498.99" y="391.508" width="6.318" height="31.59" fill="black"/>
<rect x="498.99" y="391.508" width="6.318" height="31.59" fill="black"/>
<rect x="514.785" y="359.918" width="6.318" height="31.59" fill="black"/>
<rect x="514.785" y="359.918" width="6.318" height="31.59" fill="black"/>
<rect x="514.785" y="359.918" width="6.318" height="31.59" fill="black"/>
<rect x="427.125" y="457.846" width="6.318" height="37.908" fill="black"/>
<rect x="427.125" y="457.846" width="6.318" height="37.908" fill="black"/>
<rect x="427.125" y="457.846" width="6.318" height="37.908" fill="black"/>
<rect x="457.135" y="434.941" width="6.318" height="37.908" fill="black"/>
<rect x="457.135" y="434.941" width="6.318" height="37.908" fill="black"/>
<rect x="457.135" y="434.941" width="6.318" height="37.908" fill="black"/>
<rect x="480.828" y="414.408" width="6.318" height="31.59" fill="black"/>
<rect x="480.828" y="414.408" width="6.318" height="31.59" fill="black"/>
<rect x="480.828" y="414.408" width="6.318" height="31.59" fill="black"/>
<rect x="498.99" y="391.508" width="6.318" height="31.59" fill="black"/>
<rect x="498.99" y="391.508" width="6.318" height="31.59" fill="black"/>
<rect x="498.99" y="391.508" width="6.318" height="31.59" fill="black"/>
<rect x="514.785" y="359.918" width="6.318" height="31.59" fill="black"/>
<rect x="514.785" y="359.918" width="6.318" height="31.59" fill="black"/>
<rect x="514.785" y="359.918" width="6.318" height="31.59" fill="black"/>
<rect width="6.318" height="35.5387" transform="matrix(-1 0 0 1 130.178 460.215)" fill="black"/>
<rect width="6.318" height="35.5387" transform="matrix(-1 0 0 1 130.178 460.215)" fill="black"/>
<rect width="6.318" height="35.5387" transform="matrix(-1 0 0 1 130.178 460.215)" fill="black"/>
<rect width="6.318" height="34.749" transform="matrix(-1 0 0 1 100.168 438.102)" fill="black"/>
<rect width="6.318" height="34.749" transform="matrix(-1 0 0 1 100.168 438.102)" fill="black"/>
<rect width="6.318" height="34.749" transform="matrix(-1 0 0 1 100.168 438.102)" fill="black"/>
<rect width="6.318" height="31.59" transform="matrix(-1 0 0 1 76.4746 414.41)" fill="black"/>
<rect width="6.318" height="31.59" transform="matrix(-1 0 0 1 76.4746 414.41)" fill="black"/>
<rect width="6.318" height="31.59" transform="matrix(-1 0 0 1 76.4746 414.41)" fill="black"/>
<rect width="6.318" height="29.2207" transform="matrix(-1 0 0 1 58.3105 391.508)" fill="black"/>
<rect width="6.318" height="29.2207" transform="matrix(-1 0 0 1 58.3105 391.508)" fill="black"/>
<rect width="6.318" height="29.2207" transform="matrix(-1 0 0 1 58.3105 391.508)" fill="black"/>
<path d="M426.709 60.5071C547.642 141.938 579.744 306.102 498.406 427.178C417.067 548.255 253.093 580.391 132.159 498.96C11.2257 417.529 -20.876 253.366 60.4625 132.289C141.801 11.2123 305.775 -20.9235 426.709 60.5071Z" stroke="black" stroke-width="7.10775"/>
<path d="M110.645 320.05V220.746H139.017V234.933H153.203V249.119H167.39V234.933H181.576V220.746H209.948V320.05H181.576V263.305H167.39V291.678H153.203V263.305H139.017V320.05H110.645ZM235.483 320.05V220.746H320.601V234.933H334.787V277.491H306.415V291.678H320.601V305.864H334.787V320.05H292.228V305.864H278.042V291.678H263.856V320.05H235.483ZM263.856 277.491H292.228V263.305H306.415V234.933H263.856V277.491ZM360.322 320.05V220.746L431.254 220.746V234.933H445.44V249.119H459.626V291.678H445.44V305.864H431.254V320.05H360.322ZM388.695 305.864H417.067V291.678H431.254V249.119H417.067V234.933H388.695V305.864Z" fill="black"/>
<defs>
<linearGradient id="paint0_linear_900_111" x1="428.691" y1="57.5571" x2="129.701" y2="501.59" gradientUnits="userSpaceOnUse">
<stop stop-color="#F1A826"/>
<stop offset="1" stop-color="#FFD600"/>
</linearGradient>
</defs>
</svg>
