<svg width="78" height="77" fill="none" xmlns="http://www.w3.org/2000/svg"><path fill-rule="evenodd" clipRule="evenodd" d="M77.828 38.191c0 20.926-17.297 37.887-38.636 37.887-21.34 0-38.637-16.961-38.637-37.887C.555 17.266 17.853.305 39.192.305c21.339 0 38.636 16.961 38.636 37.886Z" fill="url(#a)"/><path fill-rule="evenodd" clipRule="evenodd" d="M36.258 39.66c.117.02.23.029.35.029h.406c1.686 0 3.272-.352 4.764-1.056 1.512-.722 2.828-1.63 3.954-2.733a12.847 12.847 0 0 0 2.643-3.675c.66-1.349.987-2.66.987-3.93 0-.913-.174-1.777-.52-2.593-.33-.817-.864-1.528-1.598-2.137-.719-.608-1.649-1.092-2.791-1.452-1.123-.36-2.47-.54-4.04-.54-1.762 0-3.285.16-4.561.482-1.26.325-2.354.74-3.286 1.253-.91.513-1.683 1.101-2.323 1.767a15.33 15.33 0 0 0-1.628 2.05 38.498 38.498 0 0 0-1.22 2.051c-.369.664-.755 1.254-1.162 1.767-.389.512-.824.93-1.308 1.254-.485.323-1.085.484-1.802.484-.969 0-1.696-.239-2.18-.713-.483-.493-.727-1.176-.727-2.05 0-.817.224-1.7.668-2.65.466-.948 1.114-1.9 1.95-2.848.85-.95 1.887-1.861 3.109-2.736a21.773 21.773 0 0 1 4.096-2.335 26.055 26.055 0 0 1 4.997-1.624c1.802-.418 3.712-.627 5.727-.627 1.976 0 3.863.248 5.665.741 1.822.496 3.43 1.235 4.826 2.221a10.744 10.744 0 0 1 3.312 3.675c.83 1.482 1.25 3.212 1.25 5.187a9.84 9.84 0 0 1-.758 3.815 13.912 13.912 0 0 1-1.973 3.389 18.255 18.255 0 0 1-2.936 2.908 24.769 24.769 0 0 1-3.545 2.335 27.684 27.684 0 0 1-3.894 1.738 22.141 22.141 0 0 1-3.837 1.023c.176.895.455 1.9.844 3.023.407 1.098.89 2.154 1.453 3.16.58.986 1.22 1.833 1.916 2.535.699.703 1.435 1.084 2.208 1.14.156.02.301.028.438.028h.406c1.415 0 2.672-.226 3.778-.683 1.103-.454 2.024-.96 2.76-1.51a10.677 10.677 0 0 0 2.265-2.193c.603-.666 1.211-.997 1.831-.997.389 0 .719.133.991.4.27.265.404.625.404 1.082 0 .437-.142.948-.435 1.536-.27.57-.745 1.167-1.421 1.794-1.998 1.844-3.954 3.193-5.872 4.045-1.899.836-3.7 1.254-5.404 1.254a6.872 6.872 0 0 1-3.865-1.167c-1.183-.778-2.257-1.831-3.226-3.16-.97-1.332-1.85-2.878-2.646-4.645a52.86 52.86 0 0 1-2.12-5.642c-.35.782-.708 1.7-1.075 2.764a144.25 144.25 0 0 1-1.192 3.249 99.531 99.531 0 0 1-1.338 3.332 20.154 20.154 0 0 1-1.538 2.934c-.563.855-1.163 1.547-1.802 2.079-.64.532-1.336.797-2.094.797-.618 0-1.123-.095-1.51-.282-.387-.19-.688-.429-.901-.715a2.872 2.872 0 0 1-.466-.938 4.429 4.429 0 0 1-.114-.969c0-.437.057-.883.174-1.338.116-.456.28-.885.494-1.283l8.573-15.383c.736-1.29 1.472-2.534 2.206-3.731a45.071 45.071 0 0 1 2.182-3.219c.716-.93 1.384-1.671 2.004-2.223.64-.568 1.211-.853 1.714-.853.137 0 .301.028.495.084.193.04.369.125.523.257.154.114.29.295.406.54.117.23.176.524.176.884 0 .361-.108.866-.32 1.512a31.635 31.635 0 0 1-.845 2.22 79.621 79.621 0 0 1-1.22 2.765c-.463.986-.949 2.003-1.452 3.048Z" fill="#fff"/><defs><linearGradient id="a" x1="39.192" y1=".305" x2="39.192" y2="76.078" gradientUnits="userSpaceOnUse"><stop stop-color="#BD27C1"/><stop offset="1" stop-color="#9D01F4"/></linearGradient></defs></svg>