<svg width="1837" height="1837" fill="none" xmlns="http://www.w3.org/2000/svg"><g clip-path="url(#a)"><mask id="c" style="mask-type:alpha" maskUnits="userSpaceOnUse" x="0" y="0" width="1837" height="1837"><path fill="url(#b)" d="M0 0h1837v1837H0z"/></mask><g mask="url(#c)"><mask id="e" style="mask-type:alpha" maskUnits="userSpaceOnUse" x="0" y="0" width="1837" height="1837"><path fill="url(#d)" d="M0 0h1837v1837H0z"/></mask><g mask="url(#e)"><mask id="g" style="mask-type:alpha" maskUnits="userSpaceOnUse" x="0" y="0" width="1837" height="1837"><path fill="url(#f)" d="M0 0h1837v1837H0z"/></mask><g opacity=".1" fill="#000" mask="url(#g)"><path d="M922.464 235.453c0 355.009-.416 650.642-1.038 656.87-.831 7.682-.623 10.173.83 7.267 1.038-2.284 20.761-150.308 43.805-329.058 23.252-178.75 61.039-469.193 84.079-645.66 23.05-176.466 41.73-320.961 41.32-321.376-1.87-2.492-85.95-10.173-132.042-12.042l-36.954-1.453v645.452ZM700.324-389.653c-29.688 4.775-75.362 14.117-105.88 21.383-10.796 2.492-15.571 4.568-15.363 6.644.207 3.322 13.079 51.486 148.232 555.35 19.515 73.078 47.542 177.712 62.282 232.521a141003.91 141003.91 0 0 1 58.13 216.949c17.231 64.566 39.861 148.647 50.033 186.847 18.893 70.794 21.384 79.306 19.516 66.435-.623-3.945-22.007-165.671-47.75-359.161-25.744-193.491-64.151-481.65-85.119-640.055-21.176-158.404-38.408-288.989-38.408-290.027 0-3.114-12.456-2.284-45.673 3.114ZM1263.15-353.947c-12.25 45.881-62.49 233.559-87.41 326.567-29.89 111.485-50.03 186.847-111.9 417.291-14.74 55.431-42.97 160.481-62.49 233.559-67.676 252.243-74.527 278.194-73.904 278.609.415.415 5.398-11.211 11.418-25.743 5.813-14.74 117.926-286.291 248.926-603.723l238.33-577.149-9.97-4.568c-18.27-8.512-81.38-31.348-113.97-41.314-17.65-5.397-33.01-10.172-34.47-10.588-1.45-.622-3.32 2.284-4.56 7.059ZM381.645-296.439c-29.687 12.872-86.987 41.107-109.409 53.563l-15.986 9.135 243.732 422.274c134.322 232.313 281.516 487.67 327.605 567.184 45.881 79.513 83.665 144.287 83.873 144.079.415-.415-9.135-23.874-20.968-52.317-21.799-52.317-83.043-199.718-172.315-414.592-26.989-64.774-71.001-170.654-97.99-235.635-26.989-64.773-71.625-172.314-99.444-239.164-27.82-66.849-63.736-153.007-79.722-191.829-16.193-38.615-29.272-71.002-29.272-72.04 0-3.322-4.775-1.869-30.104 9.342ZM1583.9-224.191c-1.66 2.699-69.55 120.205-150.72 261.17-222.56 385.527-496.391 859.911-499.92 865.724-2.907 4.775-2.907 4.982 0 2.076 9.55-9.343 794.93-1038.661 793.48-1040.114-15.78-14.325-133.29-93.424-138.89-93.424-.42 0-2.29 2.076-3.95 4.568ZM99.507-124.33C46.567-81.148-18-24.471-18-21.15c0 .623 208.438 209.477 463.38 464.004 254.735 254.734 461.304 460.473 459.228 457.359C887.17 875.508 111.341-130.974 109.68-130.974c-1.038 0-5.813 2.907-10.173 6.644ZM1396.85 448.043c-254.74 254.734-462.138 462.549-460.892 462.134 5.398-2.491 143.872-60.414 220.062-92.178 46.92-19.307 149.69-62.074 228.37-94.876 78.89-32.802 178.75-74.324 222.14-92.386 43.39-18.062 132.25-55.016 197.23-82.005 65.19-26.989 167.95-69.756 228.37-94.876 60.62-25.121 110.65-46.297 111.48-47.127 2.08-1.869-26.99-64.774-47.54-102.974-26.16-48.372-26.37-48.787-29.07-47.957-1.24.623-249.75 143.872-552.23 318.47-302.28 174.598-553.484 319.716-558.052 322.207-4.567 2.699-7.266 3.945-6.228 2.699 1.246-1.038 228.99-176.674 506.56-389.887s506.77-389.887 509.47-392.586l4.98-4.567-10.17-13.287c-26.16-34.048-94.25-111.278-99.44-113.146-1.04-.416-210.52 207.815-465.04 462.342ZM-152.113 132.065c-21.384 29.065-44.843 63.735-63.528 93.631-12.664 20.346-15.571 26.574-13.702 28.235 1.453 1.453 256.603 148.854 566.976 328.02C648.007 760.908 901.496 907.687 901.08 908.102c-.207.415-20.553-7.681-45.051-17.647-68.51-28.234-176.051-72.455-282.346-116.467-53.147-22.007-111.9-46.297-130.793-53.978-18.892-7.682-77.645-31.972-130.792-53.978-53.148-22.007-111.901-46.297-130.793-53.978-18.893-7.682-63.736-26.159-99.652-41.107-180.203-74.323-263.662-108.786-315.563-130.17-31.349-13.079-60.414-25.12-64.566-26.781l-7.682-3.114-6.643 15.986c-15.571 37.577-51.487 142.834-49.203 144.91.207.207 42.559 11.626 93.838 25.328 98.614 26.366 218.819 58.545 412.101 110.447 64.566 17.232 162.142 43.39 216.95 58.13C659.633 845.612 892.984 908.31 900.25 910.386c9.757 2.906-.415-6.436-43.598-39.238-39.86-30.311-376.808-288.367-490.576-375.355-101.521-77.852-447.395-342.344-472.723-361.652-16.193-12.249-29.688-22.422-30.103-22.422-.415.208-7.266 9.135-15.363 20.346ZM2138.01 591.084c-68.31 18.477-254.53 68.511-403.18 108.372-329.06 88.025-518.6 138.889-667.04 178.75-55.43 14.74-107.126 28.649-115.223 30.726-7.889 2.076-12.872 3.944-11.003 3.944 3.114.208 290.446-37.992 1071.466-142.003 123.11-16.401 224.21-30.104 224.63-30.519 1.45-1.453-11.21-71.417-19.52-108.579-11-48.372-13.28-55.846-16.81-56.469-1.66-.207-30.11 6.851-63.32 15.778ZM-398.751 751.563c-4.36 26.782-9.135 83.043-10.796 127.679L-411 915.158l655.832-.207 655.833-.208-99.652-13.079c-54.808-7.267-326.151-42.767-603.1-78.891-276.948-35.916-521.095-67.68-542.894-70.587-21.591-2.906-42.352-5.605-46.089-6.228-6.228-1.038-6.643-.83-7.681 5.605ZM942.186 918.481c2.284.415 36.954 4.983 76.814 10.173 40.07 4.982 190.79 24.705 335.29 43.39 576.11 75.156 871.12 113.356 877.14 113.976l6.23.42 2.49-24.92c3.32-33.21 6.85-96.535 6.85-123.109v-21.176l-654.38.208c-359.99.208-652.718.623-650.434 1.038ZM880.942 922.633c-9.758 1.454-250.167 33.633-534.59 71.418-284.214 37.789-567.391 75.359-629.051 83.669l-112.108 14.94.623 7.27c2.284 26.16 26.989 155.71 30.518 159.44.208.42 55.017-13.91 121.659-31.76 114.599-30.73 219.233-58.75 452.377-121.24 55.431-14.74 153.422-41.11 217.987-58.34 166.709-44.64 295.841-79.308 388.227-103.805 44.012-11.834 80.759-22.214 82.005-23.252 1.038-.831 1.453-1.454 1.038-1.454-.623.208-8.927 1.661-18.685 3.114ZM936.996 922.01c.623.415 43.598 18.477 95.504 39.861 128.09 52.729 197.22 81.379 450.5 185.809 53.15 22.01 111.9 46.3 130.8 53.98 18.89 7.68 77.64 31.97 130.79 53.98 53.15 22 111.9 46.29 130.79 53.97 18.89 7.69 77.65 31.98 130.8 53.98 138.26 57.09 140.75 58.13 142.83 58.13 3.94 0 32.59-80.13 47.33-132.04 3.74-13.91 7.06-26.36 7.06-27.4 0-1.04-3.94-2.7-8.72-3.95-4.98-1.03-63.52-16.81-130.37-34.67-66.85-18.06-166.3-44.63-221.11-59.37-54.81-14.74-152.38-40.9-216.95-58.13-64.56-17.23-155.08-41.52-201.38-53.98-91.55-24.5-268.85-72.04-398.6-106.71-45.053-12.249-83.876-22.629-86.16-23.252-2.283-.831-3.737-.831-3.114-.208ZM883.018 932.806c-8.512 3.737-59.376 25.12-113.146 47.334-53.563 22.21-156.329 64.98-228.369 94.88-71.832 29.89-166.293 69.13-209.683 87.19-43.39 18.06-120.413 50.04-171.277 71.21-50.863 21.18-128.301 53.36-172.314 71.63a221061.72 221061.72 0 0 0-185.809 77.23c-58.13 24.08-106.71 44.84-107.748 45.67-2.699 2.7 17.439 48.16 45.881 103.8 13.08 25.75 24.498 47.55 25.536 48.58 1.246 1.25 2.907 1.04 4.567-.2 1.454-1.25 254.112-147.2 561.164-324.49 307.259-177.3 561.371-324.08 564.692-326.156 9.135-5.605 4.153-4.567-13.494 3.322ZM934.92 928.239c0 .623 74.95 58.546 166.71 128.721 91.55 69.96 270.72 207.19 397.98 304.56 127.27 97.36 285.88 218.81 352.52 269.68 66.43 50.86 121.66 92.8 122.49 93.01 1.45.41 42.77-57.72 55.64-78.27 12.45-19.93 37.99-63.11 37.57-63.53-.2-.21-254.11-146.78-564.07-325.74-309.95-178.95-564.896-326.355-566.141-327.393-1.453-1.245-2.699-1.661-2.699-1.038ZM936.374 939.034C991.597 1011.7 1730.68 1971.05 1731.72 1971.47c2.9.83 64.56-51.7 95.91-81.8 16.61-15.78 30.31-29.27 30.73-29.9.21-.62-208.44-209.89-464-465.04C1139 1139.58 933.052 934.467 936.374 939.034ZM899.627 939.658c-3.945 3.322-236.673 182.282-516.943 397.982-280.27 215.5-510.922 393-512.583 394.46-2.284 2.28-.623 5.39 10.38 19.1 21.384 26.36 53.148 62.28 77.645 87.4l22.837 23.46 464.003-464.21c255.15-255.15 463.588-464.005 462.965-464.005-.623 0-4.36 2.699-8.304 5.813ZM932.014 943.187c1.661 4.568 21.176 51.695 43.39 104.843 53.356 128.3 128.716 309.75 176.046 423.52 56.27 135.36 107.13 257.64 180 432.86 35.5 85.53 72.25 173.98 81.38 196.19 9.35 22.21 17.44 41.31 18.27 42.14 2.7 2.91 74.74-31.14 127.27-60.2 17.85-9.97 24.08-14.53 23.25-16.82-.62-1.66-91.97-160.48-203.25-353.14-111.07-192.45-256.81-444.9-323.66-560.75-66.85-115.84-122.696-212.172-123.734-213.833-1.246-1.661-.831.623 1.038 5.19ZM925.578 947.339c1.038 8.72 46.089 348.361 150.512 1133.331 11.42 85.53 20.97 155.91 21.39 156.33 1.24 1.04 47.12-6.44 79.3-12.87 40.9-8.52 87.2-20.56 86.78-22.84-.2-1.25-11.21-42.77-24.49-92.39-13.29-49.61-34.26-128.09-46.72-174.39-24.91-92.8-70.17-262-112.1-418.33-14.95-56.05-41.32-154.04-58.34-217.98-102.145-381.172-97.786-365.186-96.332-350.861ZM517.421 1451.2c-215.081 281.1-393.831 514.45-396.945 518.81l-5.813 7.68 24.497 17.65c33.218 23.67 116.883 77.23 118.129 75.57.208-.21 97.991-169.61 217.158-376.18 285.045-493.7 433.692-751.129 434.938-753.205.415-.83.415-1.453 0-1.453-.416 0-176.882 230.028-391.964 511.128ZM917.274 951.906c-1.661 14.117-49.411 381.584-118.336 909.944-26.782 205.95-48.165 375.15-47.127 375.98 3.529 3.11 103.803 10.17 145.325 10.17h23.252v-653.96c0-359.79-.415-653.968-.83-653.968-.416 0-1.454 5.398-2.284 11.834ZM819.697 1168.02c-51.071 124.15-111.9 271.35-134.945 327.4-54.808 132.66-91.139 220.9-140.135 339.44-22.006 53.15-49.618 120.41-61.659 149.48-19.93 47.95-66.019 159.65-68.303 165.25-1.868 4.36 136.398 51.7 155.498 53.36l6.436.41 21.176-78.89c11.626-43.39 35.708-133.07 53.355-199.3 73.286-273.21 96.538-359.78 121.866-454.66 14.74-54.81 40.898-152.39 58.13-216.95 69.341-258.68 83.043-310.167 82.42-310.582-.415-.416-42.559 100.892-93.839 225.042Z"/></g></g></g></g><defs><radialGradient id="b" cx="0" cy="0" r="1" gradientUnits="userSpaceOnUse" gradientTransform="rotate(90 0 918.5) scale(918.5)"><stop stop-color="#D9D9D9"/><stop offset=".78" stop-color="#C1C1C1"/><stop offset="1" stop-color="#737373" stop-opacity="0"/></radialGradient><radialGradient id="d" cx="0" cy="0" r="1" gradientUnits="userSpaceOnUse" gradientTransform="matrix(0 335.5 -335.5 0 918.5 919)"><stop offset=".295" stop-color="#fff" stop-opacity=".18"/><stop offset="1" stop-color="#737373"/></radialGradient><radialGradient id="f" cx="0" cy="0" r="1" gradientUnits="userSpaceOnUse" gradientTransform="matrix(0 667 -667 0 918.5 919)"><stop offset=".38" stop-color="#fff" stop-opacity=".18"/><stop offset="1" stop-color="#737373"/></radialGradient><clipPath id="a"><path fill="#fff" d="M0 0h1837v1837H0z"/></clipPath></defs></svg>